<?xml version="1.0" standalone="no"?>
<!DOCTYPE svg PUBLIC "-//W3C//DTD SVG 20010904//EN"
 "http://www.w3.org/TR/2001/REC-SVG-20010904/DTD/svg10.dtd">
<svg version="1.0" xmlns="http://www.w3.org/2000/svg"
 width="415.000000pt" height="415.000000pt" viewBox="0 0 415.000000 415.000000"
 preserveAspectRatio="xMidYMid meet">
<metadata>
Created by potrace 1.14, written by Peter Selinger 2001-2017
</metadata>
<g transform="translate(0.000000,415.000000) scale(0.100000,-0.100000)"
fill="#000000" stroke="none">
<path d="M1918 3355 c-2 -1 -46 -5 -98 -9 -52 -3 -106 -8 -120 -10 -14 -2 -47
-7 -75 -11 -41 -5 -149 -25 -282 -51 -74 -14 -281 -81 -385 -123 -471 -192
-792 -481 -903 -815 -31 -95 -36 -123 -40 -243 -9 -307 157 -601 472 -833 37
-28 74 -55 80 -61 29 -23 233 -131 319 -169 191 -84 455 -162 624 -186 19 -2
45 -7 58 -10 179 -39 693 -50 892 -20 14 2 61 9 105 16 228 34 476 101 660
177 130 54 331 162 400 216 6 4 39 29 75 56 74 55 169 145 220 210 19 24 41
49 48 56 6 8 12 18 12 23 0 6 4 12 9 14 15 5 98 170 119 238 43 138 53 306 25
419 -8 31 -17 67 -20 81 -10 48 -82 190 -133 264 -54 77 -174 206 -250 267
-271 218 -644 377 -1064 453 -72 14 -158 27 -191 30 -33 3 -85 9 -115 12 -55
6 -437 14 -442 9z"/>
</g>
</svg>
