<svg width="597" height="325" viewBox="0 0 597 325" fill="none" xmlns="http://www.w3.org/2000/svg">
<path d="M0.0175781 109V2.59998H50.0256C57.2202 2.59998 63.5029 3.81597 68.8736 6.24797C74.2442 8.67998 78.4496 12.1253 81.4896 16.584C84.5296 20.9413 86.0496 26.008 86.0496 31.784C86.0496 36.4453 84.8336 40.752 82.4016 44.704C80.0709 48.5546 76.8789 51.696 72.8256 54.128C77.9936 56.56 82.0976 59.8533 85.1376 64.008C88.1776 68.1626 89.6976 72.8746 89.6976 78.144C89.6976 84.224 88.1269 89.5946 84.9856 94.256C81.9456 98.9173 77.5882 102.565 71.9136 105.2C66.3403 107.733 59.8549 109 52.4576 109H0.0175781ZM22.0576 46.072H48.6576C53.4202 46.072 57.1696 44.9573 59.9056 42.728C62.7429 40.3973 64.1616 37.3066 64.1616 33.456C64.1616 29.6053 62.7429 26.5653 59.9056 24.336C57.1696 22.0053 53.4202 20.84 48.6576 20.84H22.0576V46.072ZM22.0576 90.76H50.7856C55.8522 90.76 59.9056 89.544 62.9456 87.112C65.9856 84.5787 67.5056 81.2346 67.5056 77.08C67.5056 72.824 65.9856 69.48 62.9456 67.048C59.9056 64.5146 55.8522 63.248 50.7856 63.248H22.0576V90.76Z" fill="#B31B1B"/>
<path d="M105.111 109V2.59998H127.151V109H105.111Z" fill="#B31B1B"/>
<path d="M198.813 110.672C190.909 110.672 183.563 109.304 176.773 106.568C169.984 103.731 164.005 99.8293 158.837 94.864C153.669 89.7973 149.616 83.9706 146.677 77.384C143.84 70.696 142.421 63.5013 142.421 55.8C142.421 48.0986 143.84 40.9546 146.677 34.368C149.616 27.68 153.619 21.8533 158.685 16.888C163.752 11.8213 169.68 7.91998 176.469 5.18398C183.36 2.34665 190.707 0.927979 198.509 0.927979C207.325 0.927979 215.635 2.70131 223.437 6.24797C231.24 9.69331 237.675 14.5573 242.741 20.84L227.389 34.976C223.741 30.416 219.435 26.9706 214.469 24.64C209.504 22.3093 204.184 21.144 198.509 21.144C193.747 21.144 189.339 22.056 185.285 23.88C181.232 25.6026 177.685 28.0346 174.645 31.176C171.605 34.216 169.224 37.864 167.501 42.12C165.88 46.2746 165.069 50.8346 165.069 55.8C165.069 60.7653 165.931 65.376 167.653 69.632C169.376 73.888 171.757 77.5866 174.797 80.728C177.939 83.768 181.536 86.2 185.589 88.024C189.744 89.7466 194.253 90.608 199.117 90.608C204.184 90.608 208.744 89.696 212.797 87.872C216.851 85.9466 220.245 83.312 222.981 79.968C225.819 76.5226 227.693 72.672 228.605 68.416H197.141V49.264H252.165V55.952C252.165 63.856 250.797 71.152 248.061 77.84C245.427 84.4266 241.728 90.2027 236.965 95.168C232.203 100.032 226.579 103.832 220.093 106.568C213.608 109.304 206.515 110.672 198.813 110.672Z" fill="#B31B1B"/>
<path d="M297.783 109V2.59998H349.767C356.962 2.59998 363.295 4.01864 368.767 6.85597C374.341 9.59198 378.647 13.4426 381.687 18.408C384.829 23.3733 386.399 29.0986 386.399 35.584C386.399 42.3733 384.525 48.352 380.775 53.52C377.026 58.688 372.01 62.5386 365.727 65.072L389.287 109H364.663L343.839 68.264H319.823V109H297.783ZM319.823 50.176H347.791C352.757 50.176 356.709 48.8586 359.647 46.224C362.687 43.5893 364.207 40.144 364.207 35.888C364.207 31.632 362.687 28.1866 359.647 25.552C356.709 22.9173 352.757 21.6 347.791 21.6H319.823V50.176Z" fill="#B31B1B"/>
<path d="M400.947 109V2.59998H482.723V21.752H422.987V46.072H462.355V64.616H422.987V89.848H483.331V109H400.947Z" fill="#B31B1B"/>
<path d="M520.956 89.392H539.5C544.263 89.392 548.671 88.5813 552.724 86.96C556.879 85.2373 560.476 82.856 563.516 79.816C566.657 76.776 569.039 73.2293 570.66 69.176C572.383 65.1226 573.244 60.7146 573.244 55.952C573.244 51.1893 572.383 46.7813 570.66 42.728C568.937 38.5733 566.556 34.976 563.516 31.936C560.476 28.896 556.879 26.5146 552.724 24.792C548.671 23.0693 544.263 22.208 539.5 22.208H520.956V89.392ZM498.916 109V2.59998H539.804C547.809 2.59998 555.207 3.96798 561.996 6.70398C568.785 9.33865 574.713 13.088 579.78 17.952C584.847 22.816 588.799 28.4906 591.636 34.976C594.575 41.4613 596.044 48.4533 596.044 55.952C596.044 63.552 594.625 70.544 591.788 76.928C588.951 83.312 584.948 88.936 579.78 93.8C574.713 98.5626 568.785 102.312 561.996 105.048C555.207 107.683 547.809 109 539.804 109H498.916Z" fill="#B31B1B"/>
<path d="M3.42879 320V150.6H38.5188V320H3.42879Z" fill="black"/>
<path d="M152.854 322.42C140.27 322.42 128.493 320.242 117.522 315.886C106.552 311.369 96.9523 305.157 88.7243 297.252C80.6577 289.347 74.285 280.151 69.6063 269.664C65.089 259.016 62.8303 247.561 62.8303 235.3C62.8303 222.877 65.089 211.423 69.6063 200.936C74.285 190.288 80.7383 181.011 88.9663 173.106C97.1943 165.201 106.713 159.07 117.522 154.714C128.493 150.197 140.27 147.938 152.854 147.938C162.212 147.938 171.246 149.229 179.958 151.81C188.67 154.391 196.737 158.021 204.158 162.7C211.741 167.379 218.194 173.025 223.518 179.64L199.802 203.114C193.672 195.531 186.573 189.804 178.506 185.932C170.601 182.06 162.05 180.124 152.854 180.124C145.272 180.124 138.173 181.576 131.558 184.48C124.944 187.223 119.216 191.095 114.376 196.096C109.536 200.936 105.745 206.744 103.002 213.52C100.26 220.135 98.8883 227.395 98.8883 235.3C98.8883 243.044 100.26 250.304 103.002 257.08C105.745 263.695 109.617 269.503 114.618 274.504C119.62 279.344 125.428 283.135 132.042 285.878C138.818 288.621 146.159 289.992 154.064 289.992C162.938 289.992 171.246 288.137 178.99 284.426C186.734 280.715 193.591 275.391 199.56 268.454L222.55 291.202C217.226 297.655 210.854 303.221 203.432 307.9C196.011 312.579 187.944 316.209 179.232 318.79C170.682 321.21 161.889 322.42 152.854 322.42Z" fill="black"/>
<path d="M437.8 320V150.6H471.196L555.412 259.984V150.6H588.324V320H557.348L470.954 206.744V320H437.8Z" fill="black"/>
<path fill-rule="evenodd" clip-rule="evenodd" d="M319.444 146.088C297.056 147.14 276.159 156.388 260.273 172.274C249.476 183.071 241.639 196.324 237.47 210.837C232.843 226.944 232.843 244.057 237.47 260.164C241.641 274.684 249.471 287.925 260.273 298.727C270.162 308.616 282.09 316.016 295.202 320.398C312.329 326.121 330.804 326.516 348.163 321.529C362.678 317.36 375.929 309.525 386.727 298.727C396.617 288.836 404.016 276.912 408.398 263.798C414.121 246.671 414.516 228.196 409.529 210.837C405.358 196.317 397.529 183.076 386.727 172.274C373.492 159.039 356.713 150.354 338.372 147.245C332.303 146.216 325.532 145.802 319.444 146.088ZM327.501 160.161C330.928 160.369 334.009 160.934 336.934 161.89C348.096 165.537 354.184 173.485 352.859 182.678C352.583 184.592 343.793 237.992 343.63 238.743C342.597 243.514 339.343 247.829 334.965 250.235C334.535 250.472 334.295 250.558 334.273 250.485C334.254 250.424 334.213 249.891 334.182 249.301C334.152 248.711 334.075 247.985 334.012 247.688C333.907 247.195 333.897 247.318 333.895 249.086C333.894 250.878 333.875 251.101 333.645 252.01C333.019 254.487 332.019 256.262 330.261 258.02C328.767 259.514 327.046 260.581 325.203 261.155L324.528 261.365L324.502 284.169C324.473 309.182 324.519 307.205 323.933 308.418C323.393 309.536 322.663 310.254 321.635 310.678C321.134 310.884 321.043 310.889 317.672 310.889C314.301 310.889 314.21 310.884 313.709 310.678C312.681 310.254 311.951 309.536 311.411 308.418C310.825 307.204 310.874 309.441 310.82 281.47L310.772 255.968L310.414 255.337C309.205 253.211 308.623 250.552 308.843 248.16C309.249 243.754 311.763 239.993 315.643 237.989C317.501 237.029 319.2 236.618 321.327 236.612C323.408 236.607 325.407 237.078 327.136 237.98C327.572 238.208 327.824 238.311 327.696 238.209C327.292 237.889 325.352 236.929 324.52 236.637C320.871 235.359 316.595 235.634 313.198 237.365C309.039 239.485 306.181 243.298 305.352 247.832C305.158 248.897 305.295 248.868 303.825 248.154C300.307 246.446 297.411 243.512 295.708 239.93C294.394 237.167 293.831 234.287 294.034 231.364C294.09 230.557 294.936 225.147 296.515 215.5C297.833 207.448 298.922 200.847 298.936 200.83C298.949 200.813 306.191 201.581 315.029 202.535C323.868 203.49 331.281 204.275 331.504 204.279C331.766 204.285 331.996 204.224 332.157 204.108C333.043 203.464 333.133 201.483 332.301 200.938C332.11 200.813 328.763 200.425 315.833 199.029C306.907 198.066 299.586 197.258 299.563 197.236C299.54 197.213 299.596 196.729 299.687 196.16C299.84 195.2 299.867 195.126 300.061 195.126C300.176 195.126 307.462 195.902 316.252 196.851C325.042 197.8 332.382 198.576 332.563 198.576C333.193 198.576 333.727 197.881 333.824 196.934C333.915 196.058 333.542 195.259 332.964 195.093C332.862 195.063 325.519 194.257 316.646 193.301C307.774 192.345 300.5 191.549 300.483 191.533C300.465 191.517 300.566 190.807 300.707 189.956L300.964 188.409L301.252 188.458C301.411 188.485 308.771 189.284 317.609 190.235C333.533 191.949 333.681 191.963 333.971 191.793C334.424 191.529 334.783 190.759 334.78 190.057C334.778 189.39 334.54 188.781 334.192 188.554C334.01 188.435 330.442 188.023 317.843 186.668C308.979 185.714 301.689 184.9 301.643 184.859C301.593 184.815 301.652 184.215 301.784 183.405C301.984 182.182 302.031 182.022 302.197 181.998C302.301 181.983 309.597 182.749 318.412 183.699C327.226 184.65 334.581 185.428 334.755 185.428C335.271 185.428 335.581 185.204 335.865 184.624C336.346 183.64 336.118 182.34 335.408 182.026C335.219 181.942 329.131 181.252 318.884 180.153C309.961 179.195 302.647 178.402 302.633 178.389C302.582 178.345 303.276 174.374 303.464 173.633C304.492 169.585 306.987 166.284 310.865 163.841C314.23 161.721 318.971 160.381 323.863 160.166C324.766 160.127 325.609 160.088 325.738 160.081C325.866 160.074 326.659 160.109 327.501 160.161ZM333.764 246.931C333.769 247.039 333.791 247.062 333.82 246.987C333.847 246.92 333.844 246.839 333.813 246.808C333.782 246.777 333.76 246.833 333.764 246.931Z" fill="#B31B1B"/>
</svg>
