<?xml version="1.0" encoding="UTF-8" standalone="no"?>
<svg
   xmlns:dc="http://purl.org/dc/elements/1.1/"
   xmlns:cc="http://creativecommons.org/ns#"
   xmlns:rdf="http://www.w3.org/1999/02/22-rdf-syntax-ns#"
   xmlns:svg="http://www.w3.org/2000/svg"
   xmlns="http://www.w3.org/2000/svg"
   xmlns:sodipodi="http://sodipodi.sourceforge.net/DTD/sodipodi-0.dtd"
   xmlns:inkscape="http://www.inkscape.org/namespaces/inkscape"
   sodipodi:docname="bribb2.svg"
   inkscape:version="1.0 (4035a4f, 2020-05-01)"
   id="svg968"
   version="1.1"
   viewBox="0 0 157.69901 103.426"
   height="103.426mm"
   width="157.69901mm">
  <defs
     id="defs962" />
  <sodipodi:namedview
     inkscape:window-maximized="0"
     inkscape:window-y="44"
     inkscape:window-x="42"
     inkscape:window-height="943"
     inkscape:window-width="1443"
     showguides="false"
     showgrid="false"
     inkscape:document-rotation="0"
     inkscape:current-layer="layer1"
     inkscape:document-units="mm"
     inkscape:cy="560"
     inkscape:cx="244.28571"
     inkscape:zoom="0.35"
     inkscape:pageshadow="2"
     inkscape:pageopacity="0.0"
     borderopacity="1.0"
     bordercolor="#666666"
     pagecolor="#ffffff"
     id="base" />
  <metadata
     id="metadata965">
    <rdf:RDF>
      <cc:Work
         rdf:about="">
        <dc:format>image/svg+xml</dc:format>
        <dc:type
           rdf:resource="http://purl.org/dc/dcmitype/StillImage" />
        <dc:title></dc:title>
      </cc:Work>
    </rdf:RDF>
  </metadata>
  <g
     id="layer1"
     inkscape:groupmode="layer"
     inkscape:label="Layer 1">
    <g
       transform="translate(-31.519719,-31.441843)"
       id="g1622">
      <g
         id="g923"
         transform="matrix(0.26458333,0,0,0.26458333,31.51972,31.441843)">
        <path
           transform="translate(-0.01758,-0.927979)"
           d="M 0.0175781,109 V 2.59998 H 50.0256 c 7.1946,0 13.4773,1.21599 18.848,3.64799 5.3706,2.43201 9.576,5.87733 12.616,10.33603 3.04,4.3573 4.56,9.424 4.56,15.2 0,4.6613 -1.216,8.968 -3.648,12.92 -2.3307,3.8506 -5.5227,6.992 -9.576,9.424 5.168,2.432 9.272,5.7253 12.312,9.88 3.04,4.1546 4.56,8.8666 4.56,14.136 0,6.08 -1.5707,11.4506 -4.712,16.112 -3.04,4.6613 -7.3974,8.309 -13.072,10.944 -5.5733,2.533 -12.0587,3.8 -19.456,3.8 z M 22.0576,46.072 h 26.6 c 4.7626,0 8.512,-1.1147 11.248,-3.344 2.8373,-2.3307 4.256,-5.4214 4.256,-9.272 0,-3.8507 -1.4187,-6.8907 -4.256,-9.12 -2.736,-2.3307 -6.4854,-3.496 -11.248,-3.496 h -26.6 z m 0,44.688 h 28.728 c 5.0666,0 9.12,-1.216 12.16,-3.648 3.04,-2.5333 4.56,-5.8774 4.56,-10.032 0,-4.256 -1.52,-7.6 -4.56,-10.032 -3.04,-2.5334 -7.0934,-3.8 -12.16,-3.8 h -28.728 z"
           fill="#b31b1b"
           id="path833" />
        <path
           transform="translate(-0.01758,-0.927979)"
           d="M 105.111,109 V 2.59998 h 22.04 V 109 Z"
           fill="#b31b1b"
           id="path835" />
        <path
           transform="translate(-0.01758,-0.927979)"
           d="m 198.813,110.672 c -7.904,0 -15.25,-1.368 -22.04,-4.104 -6.789,-2.837 -12.768,-6.7387 -17.936,-11.704 -5.168,-5.0667 -9.221,-10.8934 -12.16,-17.48 -2.837,-6.688 -4.256,-13.8827 -4.256,-21.584 0,-7.7014 1.419,-14.8454 4.256,-21.432 2.939,-6.688 6.942,-12.5147 12.008,-17.48 5.067,-5.0667 10.995,-8.96802 17.784,-11.70402 6.891,-2.83733 14.238,-4.256001 22.04,-4.256001 8.816,0 17.126,1.773331 24.928,5.319991 7.803,3.44534 14.238,8.30933 19.304,14.59203 l -15.352,14.136 c -3.648,-4.56 -7.954,-8.0054 -12.92,-10.336 -4.965,-2.3307 -10.285,-3.496 -15.96,-3.496 -4.762,0 -9.17,0.912 -13.224,2.736 -4.053,1.7226 -7.6,4.1546 -10.64,7.296 -3.04,3.04 -5.421,6.688 -7.144,10.944 -1.621,4.1546 -2.432,8.7146 -2.432,13.68 0,4.9653 0.862,9.576 2.584,13.832 1.723,4.256 4.104,7.9546 7.144,11.096 3.142,3.04 6.739,5.472 10.792,7.296 4.155,1.7226 8.664,2.584 13.528,2.584 5.067,0 9.627,-0.912 13.68,-2.736 4.054,-1.9254 7.448,-4.56 10.184,-7.904 2.838,-3.4454 4.712,-7.296 5.624,-11.552 H 197.141 V 49.264 h 55.024 v 6.688 c 0,7.904 -1.368,15.2 -4.104,21.888 -2.634,6.5866 -6.333,12.3627 -11.096,17.328 -4.762,4.864 -10.386,8.664 -16.872,11.4 -6.485,2.736 -13.578,4.104 -21.28,4.104 z"
           fill="#b31b1b"
           id="path837" />
        <path
           transform="translate(-0.01758,-0.927979)"
           d="M 297.783,109 V 2.59998 h 51.984 c 7.195,0 13.528,1.41866 19,4.25599 5.574,2.73601 9.88,6.58663 12.92,11.55203 3.142,4.9653 4.712,10.6906 4.712,17.176 0,6.7893 -1.874,12.768 -5.624,17.936 -3.749,5.168 -8.765,9.0186 -15.048,11.552 L 389.287,109 H 364.663 L 343.839,68.264 H 319.823 V 109 Z m 22.04,-58.824 h 27.968 c 4.966,0 8.918,-1.3174 11.856,-3.952 3.04,-2.6347 4.56,-6.08 4.56,-10.336 0,-4.256 -1.52,-7.7014 -4.56,-10.336 -2.938,-2.6347 -6.89,-3.952 -11.856,-3.952 h -27.968 z"
           fill="#b31b1b"
           id="path839" />
        <path
           transform="translate(-0.01758,-0.927979)"
           d="M 400.947,109 V 2.59998 h 81.776 V 21.752 h -59.736 v 24.32 h 39.368 v 18.544 h -39.368 v 25.232 h 60.344 V 109 Z"
           fill="#b31b1b"
           id="path841" />
        <path
           transform="translate(-0.01758,-0.927979)"
           d="M 520.956,89.392 H 539.5 c 4.763,0 9.171,-0.8107 13.224,-2.432 4.155,-1.7227 7.752,-4.104 10.792,-7.144 3.141,-3.04 5.523,-6.5867 7.144,-10.64 1.723,-4.0534 2.584,-8.4614 2.584,-13.224 0,-4.7627 -0.861,-9.1707 -2.584,-13.224 -1.723,-4.1547 -4.104,-7.752 -7.144,-10.792 -3.04,-3.04 -6.637,-5.4214 -10.792,-7.144 -4.053,-1.7227 -8.461,-2.584 -13.224,-2.584 H 520.956 Z M 498.916,109 V 2.59998 h 40.888 c 8.005,0 15.403,1.368 22.192,4.104 6.789,2.63467 12.717,6.38402 17.784,11.24802 5.067,4.864 9.019,10.5386 11.856,17.024 2.939,6.4853 4.408,13.4773 4.408,20.976 0,7.6 -1.419,14.592 -4.256,20.976 -2.837,6.384 -6.84,12.008 -12.008,16.872 -5.067,4.7626 -10.995,8.512 -17.784,11.248 -6.789,2.635 -14.187,3.952 -22.192,3.952 z"
           fill="#b31b1b"
           id="path843" />
        <path
           transform="translate(-0.01758,-0.927979)"
           d="M 3.42879,320 V 150.6 H 38.5188 V 320 Z"
           fill="#000000"
           id="path845" />
        <path
           transform="translate(-0.01758,-0.927979)"
           d="m 152.854,322.42 c -12.584,0 -24.361,-2.178 -35.332,-6.534 -10.97,-4.517 -20.5697,-10.729 -28.7977,-18.634 -8.0666,-7.905 -14.4393,-17.101 -19.118,-27.588 -4.5173,-10.648 -6.776,-22.103 -6.776,-34.364 0,-12.423 2.2587,-23.877 6.776,-34.364 4.6787,-10.648 11.132,-19.925 19.36,-27.83 8.228,-7.905 17.7467,-14.036 28.5557,-18.392 10.971,-4.517 22.748,-6.776 35.332,-6.776 9.358,0 18.392,1.291 27.104,3.872 8.712,2.581 16.779,6.211 24.2,10.89 7.583,4.679 14.036,10.325 19.36,16.94 l -23.716,23.474 c -6.13,-7.583 -13.229,-13.31 -21.296,-17.182 -7.905,-3.872 -16.456,-5.808 -25.652,-5.808 -7.582,0 -14.681,1.452 -21.296,4.356 -6.614,2.743 -12.342,6.615 -17.182,11.616 -4.84,4.84 -8.631,10.648 -11.374,17.424 -2.742,6.615 -4.1137,13.875 -4.1137,21.78 0,7.744 1.3717,15.004 4.1137,21.78 2.743,6.615 6.615,12.423 11.616,17.424 5.002,4.84 10.81,8.631 17.424,11.374 6.776,2.743 14.117,4.114 22.022,4.114 8.874,0 17.182,-1.855 24.926,-5.566 7.744,-3.711 14.601,-9.035 20.57,-15.972 l 22.99,22.748 c -5.324,6.453 -11.696,12.019 -19.118,16.698 -7.421,4.679 -15.488,8.309 -24.2,10.89 -8.55,2.42 -17.343,3.63 -26.378,3.63 z"
           fill="#000000"
           id="path847" />
        <path
           transform="translate(-0.01758,-0.927979)"
           d="M 437.8,320 V 150.6 h 33.396 l 84.216,109.384 V 150.6 h 32.912 V 320 H 557.348 L 470.954,206.744 V 320 Z"
           fill="#000000"
           id="path849" />
        <path
           transform="translate(-0.01758,-0.927979)"
           fill-rule="evenodd"
           clip-rule="evenodd"
           d="m 319.444,146.088 c -22.388,1.052 -43.285,10.3 -59.171,26.186 -10.797,10.797 -18.634,24.05 -22.803,38.563 -4.627,16.107 -4.627,33.22 0,49.327 4.171,14.52 12.001,27.761 22.803,38.563 9.889,9.889 21.817,17.289 34.929,21.671 17.127,5.723 35.602,6.118 52.961,1.131 14.515,-4.169 27.766,-12.004 38.564,-22.802 9.89,-9.891 17.289,-21.815 21.671,-34.929 5.723,-17.127 6.118,-35.602 1.131,-52.961 -4.171,-14.52 -12,-27.761 -22.802,-38.563 -13.235,-13.235 -30.014,-21.92 -48.355,-25.029 -6.069,-1.029 -12.84,-1.443 -18.928,-1.157 z m 8.057,14.073 c 3.427,0.208 6.508,0.773 9.433,1.729 11.162,3.647 17.25,11.595 15.925,20.788 -0.276,1.914 -9.066,55.314 -9.229,56.065 -1.033,4.771 -4.287,9.086 -8.665,11.492 -0.43,0.237 -0.67,0.323 -0.692,0.25 -0.019,-0.061 -0.06,-0.594 -0.091,-1.184 -0.03,-0.59 -0.107,-1.316 -0.17,-1.613 -0.105,-0.493 -0.115,-0.37 -0.117,1.398 -10e-4,1.792 -0.02,2.015 -0.25,2.924 -0.626,2.477 -1.626,4.252 -3.384,6.01 -1.494,1.494 -3.215,2.561 -5.058,3.135 l -0.675,0.21 -0.026,22.804 c -0.029,25.013 0.017,23.036 -0.569,24.249 -0.54,1.118 -1.27,1.836 -2.298,2.26 -0.501,0.206 -0.592,0.211 -3.963,0.211 -3.371,0 -3.462,-0.005 -3.963,-0.211 -1.028,-0.424 -1.758,-1.142 -2.298,-2.26 -0.586,-1.214 -0.537,1.023 -0.591,-26.948 l -0.048,-25.502 -0.358,-0.631 c -1.209,-2.126 -1.791,-4.785 -1.571,-7.177 0.406,-4.406 2.92,-8.167 6.8,-10.171 1.858,-0.96 3.557,-1.371 5.684,-1.377 2.081,-0.005 4.08,0.466 5.809,1.368 0.436,0.228 0.688,0.331 0.56,0.229 -0.404,-0.32 -2.344,-1.28 -3.176,-1.572 -3.649,-1.278 -7.925,-1.003 -11.322,0.728 -4.159,2.12 -7.017,5.933 -7.846,10.467 -0.194,1.065 -0.057,1.036 -1.527,0.322 -3.518,-1.708 -6.414,-4.642 -8.117,-8.224 -1.314,-2.763 -1.877,-5.643 -1.674,-8.566 0.056,-0.807 0.902,-6.217 2.481,-15.864 1.318,-8.052 2.407,-14.653 2.421,-14.67 0.013,-0.017 7.255,0.751 16.093,1.705 8.839,0.955 16.252,1.74 16.475,1.744 0.262,0.006 0.492,-0.055 0.653,-0.171 0.886,-0.644 0.976,-2.625 0.144,-3.17 -0.191,-0.125 -3.538,-0.513 -16.468,-1.909 -8.926,-0.963 -16.247,-1.771 -16.27,-1.793 -0.023,-0.023 0.033,-0.507 0.124,-1.076 0.153,-0.96 0.18,-1.034 0.374,-1.034 0.115,0 7.401,0.776 16.191,1.725 8.79,0.949 16.13,1.725 16.311,1.725 0.63,0 1.164,-0.695 1.261,-1.642 0.091,-0.876 -0.282,-1.675 -0.86,-1.841 -0.102,-0.03 -7.445,-0.836 -16.318,-1.792 -8.872,-0.956 -16.146,-1.752 -16.163,-1.768 -0.018,-0.016 0.083,-0.726 0.224,-1.577 l 0.257,-1.547 0.288,0.049 c 0.159,0.027 7.519,0.826 16.357,1.777 15.924,1.714 16.072,1.728 16.362,1.558 0.453,-0.264 0.812,-1.034 0.809,-1.736 -0.002,-0.667 -0.24,-1.276 -0.588,-1.503 -0.182,-0.119 -3.75,-0.531 -16.349,-1.886 -8.864,-0.954 -16.154,-1.768 -16.2,-1.809 -0.05,-0.044 0.009,-0.644 0.141,-1.454 0.2,-1.223 0.247,-1.383 0.413,-1.407 0.104,-0.015 7.4,0.751 16.215,1.701 8.814,0.951 16.169,1.729 16.343,1.729 0.516,0 0.826,-0.224 1.11,-0.804 0.481,-0.984 0.253,-2.284 -0.457,-2.598 -0.189,-0.084 -6.277,-0.774 -16.524,-1.873 -8.923,-0.958 -16.237,-1.751 -16.251,-1.764 -0.051,-0.044 0.643,-4.015 0.831,-4.756 1.028,-4.048 3.523,-7.349 7.401,-9.792 3.365,-2.12 8.106,-3.46 12.998,-3.675 0.903,-0.039 1.746,-0.078 1.875,-0.085 0.128,-0.007 0.921,0.028 1.763,0.08 z m 6.263,86.77 c 0.005,0.108 0.027,0.131 0.056,0.056 0.027,-0.067 0.024,-0.148 -0.007,-0.179 -0.031,-0.031 -0.053,0.025 -0.049,0.123 z"
           fill="#b31b1b"
           id="path851" />
        <g
           id="g957">
          <g
             aria-label="BATTLE OF THE BANDS"
             transform="scale(0.99963694,1.0003632)"
             id="text863"
             style="font-size:48.2033px;line-height:1.25;font-family:Messages;-inkscape-font-specification:Messages;fill:#000000;stroke-width:1.20508">
            <path
               d="m 30.344189,372.63445 q 2.892198,0.91586 4.53111,3.08501 1.638912,2.12095 1.638912,5.25416 0,4.4347 -3.470637,6.84487 -3.422435,2.36196 -10.026287,2.36196 H 5.5676924 V 356.43814 H 22.053221 q 6.170023,0 9.447847,2.36196 3.326028,2.36196 3.326028,6.41104 0,2.45837 -1.205083,4.3865 -1.156879,1.92813 -3.277824,3.03681 z M 13.328424,362.31894 v 7.95355 h 7.760731 q 2.892198,0 4.386501,-1.01227 1.494302,-1.01227 1.494302,-2.98861 0,-1.97633 -1.494302,-2.9404 -1.494303,-1.01227 -4.386501,-1.01227 z m 9.110424,21.98071 q 3.085011,0 4.627516,-1.01227 1.590709,-1.01227 1.590709,-3.13322 0,-4.19368 -6.218225,-4.19368 h -9.110424 v 8.33917 z"
               style="font-style:normal;font-variant:normal;font-weight:bold;font-stretch:normal;font-family:Montserrat;-inkscape-font-specification:'Montserrat Bold';stroke-width:1.20508"
               id="path907" />
            <path
               d="M 64.695065,382.94996 H 49.028992 l -2.988604,7.23049 H 38.03864 l 15.03943,-33.74231 h 7.712528 l 15.087633,33.74231 H 67.68367 Z m -2.458368,-5.92901 -5.350567,-12.91849 -5.350566,12.91849 z"
               style="font-style:normal;font-variant:normal;font-weight:bold;font-stretch:normal;font-family:Montserrat;-inkscape-font-specification:'Montserrat Bold';stroke-width:1.20508"
               id="path909" />
            <path
               d="M 84.673824,362.80098 H 73.876285 v -6.36284 H 103.2803 v 6.36284 H 92.482759 v 27.37947 h -7.808935 z"
               style="font-style:normal;font-variant:normal;font-weight:bold;font-stretch:normal;font-family:Montserrat;-inkscape-font-specification:'Montserrat Bold';stroke-width:1.20508"
               id="path911" />
            <path
               d="M 114.89504,362.80098 H 104.0975 v -6.36284 h 29.40401 v 6.36284 h -10.79754 v 27.37947 h -7.80893 z"
               style="font-style:normal;font-variant:normal;font-weight:bold;font-stretch:normal;font-family:Montserrat;-inkscape-font-specification:'Montserrat Bold';stroke-width:1.20508"
               id="path913" />
            <path
               d="m 137.65604,356.43814 h 7.80894 v 27.37947 h 16.91935 v 6.36284 h -24.72829 z"
               style="font-style:normal;font-variant:normal;font-weight:bold;font-stretch:normal;font-family:Montserrat;-inkscape-font-specification:'Montserrat Bold';stroke-width:1.20508"
               id="path915" />
            <path
               d="m 192.87368,383.91402 v 6.26643 h -26.12619 v -33.74231 h 25.49954 v 6.26643 h -17.73881 v 7.3269 h 15.66607 v 6.07362 h -15.66607 v 7.80893 z"
               style="font-style:normal;font-variant:normal;font-weight:bold;font-stretch:normal;font-family:Montserrat;-inkscape-font-specification:'Montserrat Bold';stroke-width:1.20508"
               id="path917" />
            <path
               d="m 229.12632,390.75889 q -5.25416,0 -9.49605,-2.26556 -4.19368,-2.26555 -6.60385,-6.21822 -2.36196,-4.00087 -2.36196,-8.96581 0,-4.96494 2.36196,-8.91762 2.41017,-4.00087 6.60385,-6.26642 4.24189,-2.26556 9.49605,-2.26556 5.25416,0 9.44785,2.26556 4.19369,2.26555 6.60385,6.26642 2.41017,3.95268 2.41017,8.91762 0,4.96494 -2.41017,8.96581 -2.41016,3.95267 -6.60385,6.21822 -4.19369,2.26556 -9.44785,2.26556 z m 0,-6.65206 q 2.98861,0 5.39877,-1.34969 2.41017,-1.39789 3.75986,-3.85626 1.3979,-2.45837 1.3979,-5.59158 0,-3.13322 -1.3979,-5.59159 -1.34969,-2.45837 -3.75986,-3.80806 -2.41016,-1.39789 -5.39877,-1.39789 -2.9886,0 -5.39877,1.39789 -2.41016,1.34969 -3.80806,3.80806 -1.34969,2.45837 -1.34969,5.59159 0,3.13321 1.34969,5.59158 1.3979,2.45837 3.80806,3.85626 2.41017,1.34969 5.39877,1.34969 z"
               style="font-style:normal;font-variant:normal;font-weight:bold;font-stretch:normal;font-family:Montserrat;-inkscape-font-specification:'Montserrat Bold';stroke-width:1.20508"
               id="path919" />
            <path
               d="m 261.26586,362.70457 v 8.91761 h 15.61787 v 6.26643 h -15.61787 v 12.29184 h -7.80893 v -33.74231 h 25.49954 v 6.26643 z"
               style="font-style:normal;font-variant:normal;font-weight:bold;font-stretch:normal;font-family:Montserrat;-inkscape-font-specification:'Montserrat Bold';stroke-width:1.20508"
               id="path921" />
            <path
               d="m 304.88383,362.80098 h -10.79754 v -6.36284 h 29.40402 v 6.36284 h -10.79754 v 27.37947 h -7.80894 z"
               style="font-style:normal;font-variant:normal;font-weight:bold;font-stretch:normal;font-family:Montserrat;-inkscape-font-specification:'Montserrat Bold';stroke-width:1.20508"
               id="path923" />
            <path
               d="m 358.59136,356.43814 v 33.74231 h -7.80893 V 376.3461 h -15.32865 v 13.83435 h -7.80894 v -33.74231 h 7.80894 v 13.30411 h 15.32865 v -13.30411 z"
               style="font-style:normal;font-variant:normal;font-weight:bold;font-stretch:normal;font-family:Montserrat;-inkscape-font-specification:'Montserrat Bold';stroke-width:1.20508"
               id="path925" />
            <path
               d="m 392.7479,383.91402 v 6.26643 h -26.12619 v -33.74231 h 25.49954 v 6.26643 h -17.73881 v 7.3269 h 15.66607 v 6.07362 h -15.66607 v 7.80893 z"
               style="font-style:normal;font-variant:normal;font-weight:bold;font-stretch:normal;font-family:Montserrat;-inkscape-font-specification:'Montserrat Bold';stroke-width:1.20508"
               id="path927" />
            <path
               d="m 437.43614,372.63445 q 2.8922,0.91586 4.53111,3.08501 1.63891,2.12095 1.63891,5.25416 0,4.4347 -3.47064,6.84487 -3.42243,2.36196 -10.02628,2.36196 h -17.4496 v -33.74231 h 16.48553 q 6.17002,0 9.44785,2.36196 3.32603,2.36196 3.32603,6.41104 0,2.45837 -1.20509,4.3865 -1.15688,1.92813 -3.27782,3.03681 z m -17.01577,-10.31551 v 7.95355 h 7.76073 q 2.8922,0 4.3865,-1.01227 1.49431,-1.01227 1.49431,-2.98861 0,-1.97633 -1.49431,-2.9404 -1.4943,-1.01227 -4.3865,-1.01227 z m 9.11043,21.98071 q 3.08501,0 4.62751,-1.01227 1.59071,-1.01227 1.59071,-3.13322 0,-4.19368 -6.21822,-4.19368 h -9.11043 v 8.33917 z"
               style="font-style:normal;font-variant:normal;font-weight:bold;font-stretch:normal;font-family:Montserrat;-inkscape-font-specification:'Montserrat Bold';stroke-width:1.20508"
               id="path929" />
            <path
               d="m 471.787,382.94996 h -15.66607 l -2.9886,7.23049 h -8.00175 l 15.03943,-33.74231 h 7.71253 l 15.08763,33.74231 h -8.19456 z m -2.45837,-5.92901 -5.35056,-12.91849 -5.35057,12.91849 z"
               style="font-style:normal;font-variant:normal;font-weight:bold;font-stretch:normal;font-family:Montserrat;-inkscape-font-specification:'Montserrat Bold';stroke-width:1.20508"
               id="path931" />
            <path
               d="m 517.41744,356.43814 v 33.74231 h -6.41104 l -16.82295,-20.4864 v 20.4864 h -7.71253 v -33.74231 h 6.45924 l 16.77475,20.4864 v -20.4864 z"
               style="font-style:normal;font-variant:normal;font-weight:bold;font-stretch:normal;font-family:Montserrat;-inkscape-font-specification:'Montserrat Bold';stroke-width:1.20508"
               id="path933" />
            <path
               d="m 525.44782,356.43814 h 15.32865 q 5.49518,0 9.68886,2.12095 4.24189,2.07274 6.55565,5.8808 2.36196,3.80806 2.36196,8.86941 0,5.06134 -2.36196,8.8694 -2.31376,3.80806 -6.55565,5.92901 -4.19368,2.07274 -9.68886,2.07274 h -15.32865 z m 14.94302,27.33127 q 5.06135,0 8.04995,-2.79579 3.03681,-2.84399 3.03681,-7.66432 0,-4.82033 -3.03681,-7.61613 -2.9886,-2.84399 -8.04995,-2.84399 h -7.13409 v 20.92023 z"
               style="font-style:normal;font-variant:normal;font-weight:bold;font-stretch:normal;font-family:Montserrat;-inkscape-font-specification:'Montserrat Bold';stroke-width:1.20508"
               id="path935" />
            <path
               d="m 576.3588,390.75889 q -4.00088,0 -7.76073,-1.06047 -3.71166,-1.10868 -5.97721,-2.844 l 2.65118,-5.8808 q 2.16915,1.59071 5.15775,2.55477 2.98861,0.96407 5.97721,0.96407 3.32603,0 4.91674,-0.96407 1.59071,-1.01226 1.59071,-2.65118 0,-1.20508 -0.96407,-1.97633 -0.91586,-0.81946 -2.41016,-1.30149 -1.4461,-0.48203 -3.95268,-1.06047 -3.85626,-0.91587 -6.31463,-1.83173 -2.45837,-0.91586 -4.24189,-2.9404 -1.73532,-2.02454 -1.73532,-5.39877 0,-2.9404 1.59071,-5.30236 1.59071,-2.41017 4.77213,-3.80806 3.22962,-1.3979 7.85714,-1.3979 3.22962,0 6.31463,0.77125 3.08501,0.77126 5.39877,2.21736 l -2.41017,5.929 q -4.67572,-2.65118 -9.35144,-2.65118 -3.27782,0 -4.86853,1.06047 -1.54251,1.06047 -1.54251,2.79579 0,1.73532 1.78353,2.60298 1.83172,0.81946 5.54338,1.63891 3.85626,0.91587 6.31463,1.83173 2.45837,0.91586 4.19369,2.8922 1.78352,1.97633 1.78352,5.35056 0,2.8922 -1.63891,5.30237 -1.59071,2.36196 -4.82033,3.75985 -3.22963,1.3979 -7.85714,1.3979 z"
               style="font-style:normal;font-variant:normal;font-weight:bold;font-stretch:normal;font-family:Montserrat;-inkscape-font-specification:'Montserrat Bold';stroke-width:1.20508"
               id="path937" />
          </g>
        </g>
      </g>
    </g>
  </g>
</svg>
