<?xml version="1.0" standalone="no"?>
<!DOCTYPE svg PUBLIC "-//W3C//DTD SVG 20010904//EN"
 "http://www.w3.org/TR/2001/REC-SVG-20010904/DTD/svg10.dtd">
<svg version="1.0" xmlns="http://www.w3.org/2000/svg"
 width="848.000000pt" height="848.000000pt" viewBox="0 0 848.000000 848.000000"
 preserveAspectRatio="xMidYMid meet">
<metadata>
Created by potrace 1.14, written by Peter Selinger 2001-2017
</metadata>
<g transform="translate(0.000000,848.000000) scale(0.100000,-0.100000)"
fill="#000000" stroke="none">
<path d="M3930 8469 c-1490 -117 -2795 -990 -3474 -2323 -605 -1187 -605
-2625 0 -3812 354 -695 903 -1294 1554 -1696 1066 -658 2343 -815 3529 -433
738 238 1418 694 1926 1290 788 927 1138 2120 974 3320 -229 1676 -1449 3066
-3085 3515 -448 122 -977 174 -1424 139z m756 -693 c313 -66 552 -190 730
-378 158 -167 236 -374 221 -583 -6 -73 -115 -747 -357 -2205 -49 -299 -97
-567 -106 -595 -58 -175 -188 -343 -344 -444 -35 -23 -66 -41 -70 -41 -4 0
-11 30 -17 68 l-10 67 -2 -85 c-2 -100 -18 -170 -62 -258 -58 -119 -201 -246
-323 -287 l-54 -19 -4 -1090 -3 -1091 -26 -50 c-15 -27 -43 -63 -64 -80 l-37
-30 -166 -3 c-92 -2 -181 -1 -199 3 -42 8 -98 56 -126 109 l-22 41 -5 1225 -5
1225 -27 51 c-84 159 -84 359 1 529 50 101 112 171 204 233 161 107 347 126
552 58 11 -4 3 2 -18 14 -107 59 -315 78 -461 40 -124 -31 -208 -82 -311 -185
-102 -101 -151 -185 -184 -315 -10 -41 -23 -76 -29 -78 -19 -6 -147 67 -215
123 -93 77 -161 164 -217 280 -64 133 -83 213 -83 350 0 112 1 119 185 1242
33 200 46 263 57 263 8 0 334 -34 725 -75 391 -42 738 -79 772 -82 56 -5 62
-4 78 18 18 26 21 90 6 118 -7 14 -30 21 -87 30 -81 11 -1440 161 -1463 161
-9 0 -11 13 -7 45 2 26 7 49 10 52 4 3 53 1 109 -5 57 -6 406 -43 777 -83 668
-70 674 -71 693 -51 11 10 22 37 25 60 5 34 1 44 -18 64 -23 22 -55 27 -789
107 -421 46 -766 84 -768 86 -3 3 18 138 22 142 1 2 149 -13 327 -32 800 -87
1070 -116 1150 -122 82 -6 87 -5 102 18 33 46 15 139 -26 139 -7 0 -48 4 -92
10 -44 5 -370 41 -725 80 -355 39 -660 73 -678 76 -24 5 -31 11 -28 23 2 9 7
37 11 64 6 46 7 47 43 47 20 0 372 -36 781 -80 515 -55 750 -76 762 -69 10 5
24 27 30 49 14 48 -1 95 -34 104 -19 4 -439 51 -1332 149 l-210 22 3 40 c7 74
41 223 66 285 97 239 325 415 642 496 142 35 223 43 419 39 144 -3 204 -9 301
-29z"/>
</g>
</svg>
